<svg width="36" height="40" viewBox="0 0 36 40" fill="none" xmlns="http://www.w3.org/2000/svg">
<path fill-rule="evenodd" clip-rule="evenodd" d="M33.4004 9.99039L35.2995 8.60211C35.4479 8.41438 35.639 7.99409 35.4566 7.65912C34.6666 6.2078 31.5362 3.18753 27.0192 1.39316C26.8847 1.33875 26.8363 1.45137 26.7705 1.60436C26.739 1.67775 26.7034 1.76043 26.6525 1.83842C26.587 2.07417 25.5131 3.41443 24.3212 2.92548C22.7889 2.29682 23.0377 1.13118 23.1163 0.764463C23.1792 0.47109 22.9853 0.319158 22.8805 0.279864C17.8925 -0.581301 11.9607 0.364658 5.87039 5.66836C0.212462 10.5955 -3.86485 24.0022 5.87039 34.2724C10.6377 39.3016 21.7964 43.7023 32.68 35.2154L33.2432 34.7701L33.6492 34.3379C33.7773 34.2012 33.7773 33.9131 33.4237 33.5726C33.273 33.4275 32.7407 32.8946 32.0159 32.1664L28.8133 28.9445C28.1154 28.2425 27.4412 27.565 26.8751 26.9978C26.7485 26.8669 26.2098 26.7673 26.0107 26.9978C23.4961 30.1149 16.3742 31.8101 11.7379 26.8071C7.0858 22.1759 9.16897 16.0937 10.8997 13.9457C13.8474 10.2873 17.4467 9.47181 20.5362 9.98458C20.5667 9.99338 20.6462 9.97955 20.7195 9.85382C20.8112 9.69665 21.6175 8.62068 23.0377 9.18587C23.9491 9.54857 24.0044 10.3075 24.0411 10.8109C24.0561 11.0164 24.0679 11.1793 24.1337 11.2552C25.5055 12.0269 26.5589 13.0135 27.0876 13.9457C27.2631 14.2551 27.629 14.2077 27.7425 14.1815L29.7722 12.6779C29.8561 12.5819 29.9734 12.3322 29.7722 12.1017C29.5862 11.9052 28.7218 10.3074 30.097 9.37749C31.4575 8.45752 32.4807 9.52155 32.7426 9.83588C32.9522 10.0873 33.2684 10.0437 33.4004 9.99039ZM23.6264 3.9995C23.5042 3.97331 23.2388 3.99164 23.1549 4.27454C23.0711 4.55743 22.6049 6.3919 22.3822 7.27377C22.3691 7.40037 22.3979 7.66668 22.618 7.71907C22.838 7.77146 23.4605 7.93299 23.7443 8.0072C23.9015 8.04831 24.1608 7.91814 24.2027 7.71907L24.9492 4.78533C25.0016 4.58887 24.9885 4.37495 24.7659 4.30074C24.6087 4.24835 23.9408 4.07808 23.6264 3.9995Z" fill="#E1083C"/>
</svg>
